<svg xmlns="http://www.w3.org/2000/svg" width="400" height="560" viewBox="0 0 400 560">
  <defs>
    <linearGradient id="bg" x1="0" y1="0" x2="0" y2="1">
      <stop offset="0" stop-color="#f0f9ff"/>
      <stop offset="0.5" stop-color="#fdf6f8"/>
      <stop offset="1" stop-color="#fff1f2"/>
    </linearGradient>
  </defs>
  <rect width="400" height="560" fill="url(#bg)"/>
  <circle cx="90" cy="90" r="110" fill="#fecdd3" opacity="0.35"/>
  <circle cx="350" cy="240" r="100" fill="#bae6fd" opacity="0.35"/>
  <circle cx="130" cy="520" r="120" fill="#fecdd3" opacity="0.3"/>
  <path d="M70 150a20 20 0 0 1 37-9 17 17 0 0 1 31 9 14 14 0 0 1 18 8H74a15 15 0 0 1-4-8Z" fill="#ffffff" opacity="0.95"/>
  <path d="M270 108a16 16 0 0 1 30-7 14 14 0 0 1 25 7 11 11 0 0 1 15 7h-66a12 12 0 0 1-4-7Z" fill="#ffffff" opacity="0.8"/>
  <path d="M300 420a30 30 0 1 0 26 40 25 25 0 1 1-26-40Z" fill="none" stroke="#fda4af" stroke-width="2.5" opacity="0.8"/>
  <path d="M336 404l2.5 5.5 5.5 2.5-5.5 2.5-2.5 5.5-2.5-5.5-5.5-2.5 5.5-2.5 2.5-5.5Z" fill="#7dd3fc" opacity="0.8"/>
  <circle cx="110" cy="330" r="3" fill="#7dd3fc" opacity="0.7"/>
  <circle cx="290" cy="330" r="2.5" fill="#fda4af" opacity="0.8"/>
  <text x="200" y="258" text-anchor="middle" font-family="Georgia, 'Times New Roman', serif" font-style="italic" font-size="30" fill="#8a5a6d">Pamuk Bulut</text>
  <text x="200" y="292" text-anchor="middle" font-family="'Segoe UI', Helvetica, Arial, sans-serif" font-size="12" fill="#a08894" letter-spacing="5">BABY SHOWER</text>
  <rect x="152" y="316" width="96" height="10" rx="5" fill="#fda4af" opacity="0.85"/>
</svg>
