<svg xmlns="http://www.w3.org/2000/svg" width="600" height="800" viewBox="0 0 600 800">
  <defs>
    <linearGradient id="bg" x1="0" y1="0" x2="1" y2="1">
      <stop offset="0%" stop-color="#fdfcf9"/>
      <stop offset="55%" stop-color="#faf8f3"/>
      <stop offset="100%" stop-color="#efe9df"/>
    </linearGradient>
    <radialGradient id="warm" cx="0.5" cy="0.18" r="0.6">
      <stop offset="0%" stop-color="#8f7355" stop-opacity="0.10"/>
      <stop offset="100%" stop-color="#8f7355" stop-opacity="0"/>
    </radialGradient>
    <linearGradient id="line" x1="0" y1="0" x2="1" y2="0">
      <stop offset="0%" stop-color="#8f7355" stop-opacity="0"/>
      <stop offset="50%" stop-color="#8f7355" stop-opacity="0.75"/>
      <stop offset="100%" stop-color="#8f7355" stop-opacity="0"/>
    </linearGradient>
  </defs>
  <rect width="600" height="800" fill="url(#bg)"/>
  <rect width="600" height="800" fill="url(#warm)"/>

  <!-- İnce çift çerçeve -->
  <rect x="48" y="48" width="504" height="704" rx="6" fill="none" stroke="#8f7355" stroke-opacity="0.35"/>
  <rect x="60" y="60" width="480" height="680" rx="4" fill="none" stroke="#8f7355" stroke-opacity="0.16"/>

  <!-- Defne dalı + iç içe alyanslar (tema süslemesi) -->
  <g transform="translate(300 170)" fill="none" stroke="#8f7355" stroke-width="2" stroke-linecap="round" stroke-linejoin="round">
    <path d="M-42 -34 c13 6.5 27 10 42 10 s29 -3.5 42 -10" opacity="0.85"/>
    <path d="M-30 -30 c0 -7.5 4 -14 10.5 -17.5 c1.5 7.5 -1.5 15 -8 19 M0 -25 c-2 -7 0 -15 6 -20 c3.5 6.5 2.5 15 -3 21 M30 -30 c0 -7.5 -4 -14 -10.5 -17.5 c-1.5 7.5 1.5 15 8 19" opacity="0.55"/>
    <circle cx="-19" cy="34" r="38"/>
    <circle cx="19" cy="34" r="38" opacity="0.45"/>
  </g>

  <rect x="190" y="466" width="220" height="1.6" fill="url(#line)"/>
</svg>
