<svg xmlns="http://www.w3.org/2000/svg" width="600" height="800" viewBox="0 0 600 800">
  <defs>
    <linearGradient id="bg" x1="0" y1="0" x2="1" y2="1">
      <stop offset="0%" stop-color="#0f172a"/>
      <stop offset="55%" stop-color="#020617"/>
      <stop offset="100%" stop-color="#1e1b4b"/>
    </linearGradient>
    <radialGradient id="glow" cx="0.5" cy="0.32" r="0.6">
      <stop offset="0%" stop-color="#fcd34d" stop-opacity="0.22"/>
      <stop offset="100%" stop-color="#fcd34d" stop-opacity="0"/>
    </radialGradient>
    <linearGradient id="line" x1="0" y1="0" x2="1" y2="0">
      <stop offset="0%" stop-color="#fcd34d" stop-opacity="0"/>
      <stop offset="50%" stop-color="#fcd34d" stop-opacity="0.9"/>
      <stop offset="100%" stop-color="#fcd34d" stop-opacity="0"/>
    </linearGradient>
  </defs>
  <rect width="600" height="800" fill="url(#bg)"/>
  <rect width="600" height="800" fill="url(#glow)"/>
  <g fill="#e2e8f0" opacity="0.5">
    <circle cx="88" cy="96" r="1.6"/><circle cx="512" cy="70" r="1.2"/><circle cx="430" cy="150" r="1.8"/>
    <circle cx="160" cy="210" r="1.1"/><circle cx="540" cy="260" r="1.5"/><circle cx="70" cy="330" r="1.3"/>
    <circle cx="300" cy="120" r="1.4"/><circle cx="360" cy="60" r="1"/><circle cx="220" cy="80" r="1.2"/>
  </g>
  <rect x="60" y="180" width="480" height="440" rx="6" fill="none" stroke="#fcd34d" stroke-opacity="0.35"/>
  <rect x="72" y="192" width="456" height="416" rx="4" fill="none" stroke="#fcd34d" stroke-opacity="0.18"/>
  <text x="300" y="300" text-anchor="middle" font-family="Georgia, serif" font-size="26" letter-spacing="10" fill="#fde68a" opacity="0.85">DAVETLİSİNİZ</text>
  <text x="300" y="410" text-anchor="middle" font-family="Georgia, serif" font-style="italic" font-size="64" fill="#f8fafc">S &amp; E</text>
  <rect x="180" y="450" width="240" height="2" fill="url(#line)"/>
  <text x="300" y="510" text-anchor="middle" font-family="Georgia, serif" font-size="20" letter-spacing="6" fill="#cbd5e1">12 EYLÜL 2026</text>
  <text x="300" y="560" text-anchor="middle" font-family="Georgia, serif" font-size="15" letter-spacing="3" fill="#94a3b8">GECE SARAYI</text>
  <circle cx="300" cy="672" r="26" fill="none" stroke="#fcd34d" stroke-opacity="0.5"/>
  <path d="M300 660 c-6 -8 -18 -4 -18 6 c0 8 10 14 18 20 c8 -6 18 -12 18 -20 c0 -10 -12 -14 -18 -6 z" fill="#fcd34d" opacity="0.85"/>
</svg>
