<svg xmlns="http://www.w3.org/2000/svg" width="600" height="800" viewBox="0 0 600 800">
  <defs>
    <linearGradient id="bg" x1="0" y1="0" x2="1" y2="1">
      <stop offset="0%" stop-color="#fafaf9"/>
      <stop offset="60%" stop-color="#f5f5f4"/>
      <stop offset="100%" stop-color="#e7e5e4"/>
    </linearGradient>
    <radialGradient id="blush" cx="0.7" cy="0.2" r="0.55">
      <stop offset="0%" stop-color="#fda4af" stop-opacity="0.16"/>
      <stop offset="100%" stop-color="#fda4af" stop-opacity="0"/>
    </radialGradient>
    <linearGradient id="line" x1="0" y1="0" x2="1" y2="0">
      <stop offset="0%" stop-color="#a8a29e" stop-opacity="0"/>
      <stop offset="50%" stop-color="#78716c" stop-opacity="0.8"/>
      <stop offset="100%" stop-color="#a8a29e" stop-opacity="0"/>
    </linearGradient>
  </defs>
  <rect width="600" height="800" fill="url(#bg)"/>
  <rect width="600" height="800" fill="url(#blush)"/>
  <g fill="none" stroke="#d6d3d1" stroke-width="1.2" opacity="0.8">
    <path d="M60 120 q40 -40 90 -18 q-30 40 -90 18 z"/>
    <path d="M540 690 q-40 40 -90 18 q30 -40 90 -18 z"/>
    <circle cx="112" cy="88" r="4" fill="#e7e5e4" stroke="none"/>
    <circle cx="492" cy="716" r="4" fill="#e7e5e4" stroke="none"/>
  </g>
  <rect x="60" y="180" width="480" height="440" rx="6" fill="none" stroke="#a8a29e" stroke-opacity="0.55"/>
  <rect x="72" y="192" width="456" height="416" rx="4" fill="none" stroke="#a8a29e" stroke-opacity="0.28"/>
  <rect x="180" y="450" width="240" height="2" fill="url(#line)"/>
  <circle cx="300" cy="672" r="26" fill="none" stroke="#a8a29e" stroke-opacity="0.7"/>
  <path d="M300 660 c-6 -8 -18 -4 -18 6 c0 8 10 14 18 20 c8 -6 18 -12 18 -20 c0 -10 -12 -14 -18 -6 z" fill="#d6bcab"/>
</svg>
