<svg xmlns="http://www.w3.org/2000/svg" width="400" height="560" viewBox="0 0 400 560">
  <defs>
    <linearGradient id="bg" x1="0" y1="0" x2="0" y2="1">
      <stop offset="0" stop-color="#0d1d42"/>
      <stop offset="0.55" stop-color="#0a1633"/>
      <stop offset="1" stop-color="#060e22"/>
    </linearGradient>
    <radialGradient id="glow" cx="0.5" cy="0.16" r="0.55">
      <stop offset="0" stop-color="#fbbf24" stop-opacity="0.35"/>
      <stop offset="1" stop-color="#fbbf24" stop-opacity="0"/>
    </radialGradient>
  </defs>
  <rect width="400" height="560" fill="url(#bg)"/>
  <rect width="400" height="560" fill="url(#glow)"/>
  <rect x="18" y="18" width="364" height="524" rx="26" fill="none" stroke="#fcd34d" stroke-opacity="0.35"/>
  <rect x="28" y="28" width="344" height="504" rx="20" fill="none" stroke="#fcd34d" stroke-opacity="0.16"/>
  <path d="M170 128l7.5-45 20 20L215 73l17.5 30 20-20 7.5 45h-90Z" transform="translate(-15 0)" fill="none" stroke="#fcd34d" stroke-width="3" stroke-linejoin="round"/>
  <line x1="160" y1="141" x2="240" y2="141" stroke="#fcd34d" stroke-width="3" stroke-linecap="round"/>
  <circle cx="200" cy="62" r="4" fill="#fde68a"/>
  <path d="M312 402a34 34 0 1 0 30 44 28 28 0 1 1-30-44Z" fill="none" stroke="#fcd34d" stroke-opacity="0.5" stroke-width="2"/>
  <circle cx="86" cy="180" r="2.5" fill="#fde68a" opacity="0.8"/>
  <circle cx="322" cy="150" r="2" fill="#fde68a" opacity="0.6"/>
  <circle cx="110" cy="430" r="2" fill="#bfdbfe" opacity="0.6"/>
  <text x="200" y="272" text-anchor="middle" font-family="Georgia, 'Times New Roman', serif" font-size="30" fill="#fde68a" letter-spacing="2">Şehzade</text>
  <text x="200" y="306" text-anchor="middle" font-family="Georgia, 'Times New Roman', serif" font-size="14" fill="#dbeafe" opacity="0.75" letter-spacing="6">SÜNNET DAVETİYESİ</text>
  <line x1="140" y1="330" x2="260" y2="330" stroke="#fcd34d" stroke-opacity="0.5"/>
</svg>
